<?xml version="1.0" encoding="utf-8"?>
<!-- Svg Vector Icons : http://www.onlinewebfonts.com/icon -->
<!DOCTYPE svg PUBLIC "-//W3C//DTD SVG 1.1//EN" "http://www.w3.org/Graphics/SVG/1.1/DTD/svg11.dtd">
<svg version="1.1" xmlns="http://www.w3.org/2000/svg" xmlns:xlink="http://www.w3.org/1999/xlink" x="0px" y="0px" viewBox="0 0 1000 1000" enable-background="new 0 0 1000 1000" xml:space="preserve">
<metadata> Svg Vector Icons : http://www.onlinewebfonts.com/icon </metadata>
<g><g transform="translate(0.000000,511.000000) scale(0.100000,-0.100000)"><path d="M3315.8,3897.1c-13.9-83.3-21.8-154.7-17.9-158.7c2-2,81.3-19.8,172.6-37.7c416.6-83.3,690.4-275.7,855-599.1c31.7-63.5,59.5-129,59.5-140.9c0-19.8-57.5-25.8-222.2-25.8c-537.6,0-989.9-101.2-1436.3-317.4c-922.5-448.3-1561.2-1299.4-1747.7-2331c-27.8-152.8-33.7-404.7-39.7-1729.9l-7.9-1553.3H514.6H100v-158.7V-3314l482.1-4c263.9-2,642.8-2,843.1,2l361.1,7.9v-192.4c0-192.4,15.9-257.9,77.4-303.5c23.8-17.8,273.8-23.8,1017.7-25.8h985.9l55.6,47.6c53.6,45.6,55.5,55.5,61.5,257.9l7.9,210.3H5000h1007.8l7.9-210.3c5.9-202.3,7.9-212.3,61.5-257.9l55.5-47.6h986c743.9,2,993.9,7.9,1017.7,25.8c61.5,45.6,77.4,111.1,77.4,303.5v192.4l363-7.9c198.4-4,577.3-4,843.1-2l480.1,4v158.7v158.7h-414.6h-416.6l-7.9,1553.3c-7.9,1682.3-7.9,1690.2-123,2087C8636.3,1683.2,7813,2510.4,6783.4,2808c-349.2,99.2-444.4,109.1-1182.4,121l-700.3,9.9V3052c0,125,47.6,246,121,313.4c63.5,55.5,178.5,85.3,341.2,85.3H5496v168.6V3788h-63.5c-376.9-4-636.8-128.9-775.7-374.9c-53.6-93.2-63.5-103.2-81.3-73.4c-63.5,105.1-204.3,271.8-305.5,355.1c-198.4,168.6-543.6,309.5-833.2,345.2l-97.2,9.9L3315.8,3897.1z M6321.2,2575.9c1180.4-164.6,2083-1007.8,2352.8-2196.1c41.7-188.5,43.6-232.1,49.6-1785.4l7.9-1591h-265.8h-267.8l-51.6,105.1c-65.5,134.9-210.3,277.7-349.1,347.2l-109.1,53.6h-565.4h-565.4l-132.9-65.5c-152.8-75.4-289.6-214.2-345.2-351.1l-37.7-89.3H5000H3958.5l-37.7,89.3c-55.6,136.9-192.4,275.7-345.2,351.1l-132.9,65.5h-565.4h-565.4l-109.1-53.6c-138.9-69.4-283.7-212.2-349.2-347.2l-51.6-105.1h-267.8h-265.8l7.9,1591c6,1555.3,7.9,1597,49.6,1785.4C1589.8,1540.3,2433,2353.7,3581.6,2560c174.6,29.8,339.2,33.7,1392.6,35.7C5730,2597.7,6224,2589.8,6321.2,2575.9z M3504.2-2869.7c121-89.3,136.9-130.9,144.8-386.8l6-236.1h-180.5h-180.5v248v248h-158.7h-158.7v-248v-248h-89.3H2798v248v248h-168.6h-168.6v-248v-248h-168.6h-168.6v218.2c0,259.9,33.7,351.1,154.7,416.6c69.4,35.7,107.1,37.7,622.9,33.7C3420.9-2828,3452.6-2830,3504.2-2869.7z M7717.8-2857.8c125-63.5,158.7-152.8,158.7-416.6v-218.2h-168.6h-168.6v248v248h-168.6H7202v-248v-248h-89.3h-89.3v248v248h-158.7h-158.7v-248v-248h-178.5H6349v194.4c0,220.2,19.8,307.5,83.3,376.9c89.3,95.2,129,101.2,686.4,103.2C7602.8-2818.1,7646.4-2820.1,7717.8-2857.8z"/><path d="M3319.7-507c-220.2-132.9-230.1-394.8-21.8-545.5c140.8-103.1,301.5-77.3,428.5,67.4c107.1,121,107.1,265.8,4,392.8C3615.3-453.4,3462.5-421.7,3319.7-507z"/><path d="M6398.6-487.1c-31.7-15.9-89.3-63.5-123-103.2c-111.1-123-111.1-271.8-2-394.8c126.9-144.8,287.6-168.6,428.5-67.4c156.7,113.1,194.4,289.6,97.2,432.5C6700.1-477.2,6531.5-421.7,6398.6-487.1z"/></g></g>
</svg>