<?xml version="1.0" encoding="utf-8"?>
<!-- Svg Vector Icons : http://www.onlinewebfonts.com/icon -->
<!DOCTYPE svg PUBLIC "-//W3C//DTD SVG 1.1//EN" "http://www.w3.org/Graphics/SVG/1.1/DTD/svg11.dtd">
<svg version="1.1" xmlns="http://www.w3.org/2000/svg" xmlns:xlink="http://www.w3.org/1999/xlink" x="0px" y="0px" viewBox="0 0 1000 1000" enable-background="new 0 0 1000 1000" xml:space="preserve">
<metadata> Svg Vector Icons : http://www.onlinewebfonts.com/icon </metadata>
<g><g transform="translate(0.000000,511.000000) scale(0.100000,-0.100000)"><path d="M1389.5,3251.2c-329.3-93.2-525.7-369-523.7-734c4-257.9,51.6-353.1,307.5-617l216.2-218.2l-107.1-214.2c-119-234.1-230.1-553.5-279.7-793.5c-57.5-281.7-69.4-620.9-69.4-2019.5V-2730H516.6H100v-156.7v-154.7l75.4-11.9c55.6-6,9520.3-4,9690.9,4c29.8,2,33.7,23.8,33.7,160.7v158.7h-414.6h-416.6l-7.9,1553.3c-5.9,1325.2-11.9,1577.1-39.7,1729.9c-65.5,363-198.4,736-367,1031.6l-79.3,138.9l162.7,168.6c89.3,93.2,182.5,200.4,204.3,238.1c121,202.4,136.9,507.9,37.7,724.1c-164.6,361.1-575.3,515.8-976,365c-93.2-35.7-154.7-81.3-317.4-240L7483.7,2783l-204.3,97.2c-349.2,168.6-662.6,255.9-1059.4,301.5c-242,25.8-2200,25.8-2446-2c-406.7-43.6-734-138.9-1083.2-313.4l-228.1-115.1l-184.5,186.5c-238.1,240-384.9,319.4-620.9,333.3C1548.2,3277,1464.9,3271,1389.5,3251.2z M1786.2,2921.9c37.7-17.9,142.8-109.1,234.1-200.4l164.7-166.6L2020.3,2414c-91.3-77.4-228.1-214.2-303.5-303.5l-138.9-162.7l-174.6,180.5c-190.4,196.4-232.1,269.8-232.1,408.7c0,119,55.5,224.2,170.6,323.4C1478.7,2983.4,1627.5,3003.2,1786.2,2921.9z M8511.3,2906c101.2-59.5,210.3-208.3,230.1-311.5c25.8-134.9-25.8-242-200.4-422.5l-162.7-166.6l-75.4,87.3c-105.1,121-339.2,345.2-440.4,420.6c-45.6,35.7-85.3,73.4-85.3,83.3c0,19.8,186.5,208.3,291.6,295.6c57.5,47.6,216.2,89.3,293.6,77.4C8396.3,2963.5,8461.7,2935.7,8511.3,2906z M6521.6,2808.8c751.9-174.6,1349-581.3,1741.8-1184.3c202.4-309.5,329.3-615,410.7-987.9c45.6-200.4,45.6-218.2,45.6-1779.5v-1577.1H5000H1280.4V-1143c0,1561.3,0,1579.1,45.6,1779.5c164.7,753.8,575.3,1366.8,1182.4,1765.6c196.4,129,545.5,291.6,755.8,351.1c365,105.1,432.5,109.1,1805.3,103.2C6287.5,2852.4,6347,2850.4,6521.6,2808.8z"/><path d="M2728.5,640.5c-59.5-33.7-89.3-79.4-89.3-138.9c0-168.6,31.7-176.6,682.4-176.6c545.5,0,545.5,0,599.1,47.6c69.4,59.5,73.4,172.6,9.9,238.1c-41.7,39.7-61.5,41.7-603.1,45.6C2944.8,660.3,2756.3,654.4,2728.5,640.5z"/><path d="M6110.9,636.5c-107.1-53.6-121-196.4-25.8-271.8c47.6-37.7,83.3-39.7,595.1-39.7c642.7,0,680.4,9.9,680.4,168.6c0,158.7-39.7,168.6-668.5,168.6C6303.4,662.3,6146.6,654.4,6110.9,636.5z"/><path d="M2688.9,96.9c-65.5-63.5-67.4-164.6-4-224.2c45.6-43.7,57.5-43.7,617-43.7c333.3,0,585.2,7.9,607,19.8c43.6,23.8,83.3,127,65.5,174.6c-5.9,17.9-29.8,53.6-51.6,79.4c-39.7,43.6-43.6,43.6-613,43.6h-573.3L2688.9,96.9z"/><path d="M6077.2,102.9c-21.8-25.8-45.6-61.5-51.6-79.4c-17.9-47.6,21.8-150.8,65.5-174.6c21.8-11.9,273.8-19.8,611-19.8h573.3l41.7,45.6c59.5,63.5,57.5,160.7-5.9,222.2l-47.6,49.6h-573.3C6120.8,146.5,6116.9,146.5,6077.2,102.9z"/><path d="M3472.5-1539.7v-158.7H5000h1527.5v158.7v158.7H5000H3472.5V-1539.7z"/></g></g>
</svg>